<svg height="496pt" viewBox="0 0 496 496" width="496pt" xmlns="http://www.w3.org/2000/svg"><path d="m488 248c0 132.546875-107.453125 240-240 240s-240-107.453125-240-240 107.453125-240 240-240 240 107.453125 240 240zm0 0" fill="#85d3c1"/><path d="m352 72v32h-208v-32zm0 0" fill="#ff958a"/><path d="m360 460.238281c-33.441406 17.761719-71.519531 27.761719-112 27.761719v-144l72-16 55.921875 9.28125c23.117187 3.917969 40.078125 23.917969 40.078125 47.359375v31.359375l1.679688 1.679688c-16.878907 16.878906-36.320313 31.359374-57.679688 42.558593zm0 0" fill="#f9d48a"/><path d="m248 448v40c-40.480469 0-78.558594-10-112-27.761719-21.359375-11.199219-40.800781-25.679687-57.679688-42.558593l1.679688-1.679688v-31.359375c0-23.441406 16.960938-43.441406 40.078125-47.359375l55.921875-9.28125 72 16zm0 0" fill="#f9d48a"/><path d="m320 328-72 16-72-16v-17.199219c0-8.160156 6.640625-14.800781 14.800781-14.800781.800781 0 1.597657.078125 2.398438.238281l14.402343 2.402344 22.878907 3.757813c5.757812.960937 10.480469 5.28125 11.839843 10.960937l5.679688 22.640625 5.679688-22.640625c1.359374-5.679687 6.082031-10 11.839843-10.960937l22.878907-3.757813 14.402343-2.402344c.800781-.160156 1.597657-.238281 2.398438-.238281 8.160156 0 14.800781 6.640625 14.800781 14.800781zm0 0" fill="#ff958a"/><path d="m368 40.078125v15.921875c0 8.800781-7.199219 16-16 16h-208c-8.800781 0-16-7.199219-16-16v-32c0-8.800781 7.199219-16 16-16h208c8.800781 0 16 7.199219 16 16zm0 0" fill="#f9d48a"/><path d="m352 136v56c0-17.679688-14.320312-32-32-32v-27.679688c7.679688 2.398438 15.761719 3.679688 24 3.679688zm0 0" fill="#f9d48a"/><path d="m320 132.320312c-15.761719-4.960937-29.839844-14.71875-40-28.320312h72v32h-8c-8.238281 0-16.320312-1.28125-24-3.679688zm0 0" fill="#f9d48a"/><path d="m176 132.320312c-7.679688 2.398438-15.761719 3.679688-24 3.679688h-8v-32h72c-10.160156 13.601562-24.238281 23.359375-40 28.320312zm0 0" fill="#f9d48a"/><path d="m176 160c-17.679688 0-32 14.320312-32 32v-56h8c8.238281 0 16.320312-1.28125 24-3.679688zm0 0" fill="#f9d48a"/><path d="m208 296v-32l1.921875-2.960938c11.039063 6.960938 24.15625 10.960938 38.078125 10.960938s27.039062-4 38.078125-10.960938l1.921875 2.960938v32l.398438 2.640625-22.878907 3.757813c-5.757812.960937-10.480469 5.28125-11.839843 10.960937l-5.679688 22.640625-5.679688-22.640625c-1.359374-5.679687-6.082031-10-11.839843-10.960937l-22.878907-3.757813zm0 0" fill="#f5f7fa"/><path d="m352 192c0 17.679688-14.320312 32-32 32l-3.761719-1.28125c2.480469-7.117188 3.761719-14.796875 3.761719-22.71875v-40c17.679688 0 32 14.320312 32 32zm0 0" fill="#f5f7fa"/><path d="m176 200v-67.679688c15.761719-4.960937 29.839844-14.71875 40-28.320312h64c10.160156 13.601562 24.238281 23.359375 40 28.320312v67.679688c0 7.921875-1.28125 15.601562-3.761719 22.71875-5.199219 16.082031-16.078125 29.601562-30.160156 38.320312-11.039063 6.960938-24.15625 10.960938-38.078125 10.960938s-27.039062-4-38.078125-10.960938c-4.640625-2.878906-8.960937-6.320312-12.800781-10.160156-7.839844-7.757812-13.839844-17.4375-17.359375-28.160156-2.480469-7.117188-3.761719-14.796875-3.761719-22.71875zm0 0" fill="#f5f7fa"/><path d="m176 200c0 7.921875 1.28125 15.601562 3.761719 22.71875l-3.761719 1.28125c-17.679688 0-32-14.320312-32-32s14.320312-32 32-32zm0 0" fill="#f5f7fa"/><g fill="#232323"><path d="m216 168c0 4.417969-3.582031 8-8 8s-8-3.582031-8-8 3.582031-8 8-8 8 3.582031 8 8zm0 0"/><path d="m296 168c0 4.417969-3.582031 8-8 8s-8-3.582031-8-8 3.582031-8 8-8 8 3.582031 8 8zm0 0"/><path d="m248 240c17.648438 0 32-14.351562 32-32h-16c0 8.824219-7.175781 16-16 16s-16-7.175781-16-16h-16c0 17.648438 14.351562 32 32 32zm0 0"/><path d="m320 360h16v16h-16zm0 0"/><path d="m168 352h16v16h-16zm0 0"/><path d="m176 432h16v16h-16zm0 0"/><path d="m312 448h16v16h-16zm0 0"/><path d="m376 35.679688v-11.679688c0-13.230469-10.769531-24-24-24h-208c-13.230469 0-24 10.769531-24 24v11.679688c-74.097656 44.777343-120 125.632812-120 212.320312 0 136.742188 111.257812 248 248 248s248-111.257812 248-248c0-86.703125-45.894531-167.535156-120-212.320312zm104 212.320312c0 57.585938-21.136719 110.296875-56 150.902344v-14.238282c0-27.496093-19.679688-50.71875-46.792969-55.238281l-49.207031-8.203125v-10.445312c0-13.808594-12.703125-24.761719-26.519531-22.472656l-5.480469.917968v-25.222656h-.199219c11.0625-8.289062 19.953125-19.3125 25.542969-32.136719 21.417969-.726562 38.65625-18.269531 38.65625-39.863281v-113.472656c9.289062-3.3125 16-12.113282 16-22.527344v-1.480469c64.480469 42.777344 104 115.625 104 193.480469zm-128 128v79.289062c-29.054688 14.640626-61.585938 23.335938-96 24.511719v-23.800781h24v-16h-24v-24h24v-16h-24v-24h24v-16h-24v-9.585938l64.214844-14.269531 54.359375 9.0625c19.144531 3.191407 33.050781 19.457031 33.371093 38.792969h-15.945312v16h16v15.761719c-12.167969 11.605469-25.542969 21.949219-40 30.726562v-70.488281zm-224 0v70.488281c-14.457031-8.769531-27.832031-19.121093-40-30.726562v-15.761719h16v-16h-15.945312c.320312-19.335938 14.226562-35.601562 33.371093-38.792969l54.359375-9.0625 64.214844 14.269531v9.585938h-24v16h24v24h-24v16h24v24h-24v16h24v23.800781c-34.414062-1.175781-66.945312-9.871093-96-24.511719v-79.289062zm41.457031-161.023438c-10.042969-2.863281-17.457031-12.023437-17.457031-22.976562 0-10.414062 6.710938-19.214844 16-22.527344v30.527344c0 5.121094.527344 10.121094 1.457031 14.976562zm-17.457031-86.976562v-16h45.128906c-12.679687 10.175781-28.617187 16-45.128906 16zm16 24.808594c-5.945312 1.214844-11.328125 3.855468-16 7.390625v-16.199219c5.414062 0 10.742188-.648438 16-1.632812zm16-14.984375c13.785156-5.410157 26.105469-14.257813 35.6875-25.824219h56.625c9.582031 11.558594 21.902344 20.414062 35.6875 25.824219v62.175781c0 35.289062-28.710938 64-64 64s-64-28.710938-64-64zm160 6.175781v16.207031c-4.671875-3.535156-10.054688-6.183593-16-7.390625v-10.441406c5.257812.976562 10.585938 1.625 16 1.625zm-16 56v-30.527344c9.289062 3.3125 16 12.113282 16 22.527344 0 10.953125-7.414062 20.113281-17.457031 22.976562.929687-4.855468 1.457031-9.855468 1.457031-14.976562zm16-72c-16.511719 0-32.449219-5.824219-45.128906-16h45.128906zm-96 152c11.375 0 22.191406-2.425781 32-6.726562v18.613281l-15.761719 2.625c-7.03125 1.175781-12.941406 5.558593-16.238281 11.648437-3.296875-6.089844-9.207031-10.472656-16.238281-11.648437l-15.761719-2.625v-18.613281c9.808594 4.300781 20.625 6.726562 32 6.726562zm64 41.585938-55.214844 12.269531 4.621094-18.511719c.65625-2.625 2.800781-4.601562 5.464844-5.046875l37.226562-6.199219c4.054688-.671875 7.902344 2.566406 7.902344 6.679688zm-82.871094-11.289063c2.664063.445313 4.808594 2.421875 5.464844 5.039063l4.628906 18.511718-55.222656-12.261718v-10.808594c0-4.113282 3.976562-7.304688 7.886719-6.6875zm-93.128906-286.296875c0-4.40625 3.59375-8 8-8h208c4.40625 0 8 3.59375 8 8v32c0 4.40625-3.59375 8-8 8h-32v16h24v16h-192v-16h152v-16h-160c-4.40625 0-8-3.59375-8-8zm-16 30.527344v1.472656c0 10.414062 6.710938 19.214844 16 22.527344v113.472656c0 21.59375 17.238281 39.136719 38.664062 39.863281 5.59375 12.824219 14.472657 23.847657 25.542969 32.136719h-.207031v25.222656l-5.496094-.910156c-1.230468-.207031-2.480468-.3125-3.726562-.3125-12.5625 0-22.777344 10.214844-22.777344 22.777344v10.445312l-49.207031 8.203125c-27.113281 4.519531-46.792969 27.742188-46.792969 55.238281v14.238282c-34.863281-40.605469-56-93.316406-56-150.902344 0-77.839844 39.527344-150.703125 104-193.472656zm0 0"/></g></svg>